# xmcd CD database file
#
# Track frame offsets:
#	150
#	10987
#	25706
#	37605
#	55888
#	74263
#	93293
#	106541
#	122392
#	132857
#	145116
#	156255
#	168600
#	180389
#	192398
#	204110
#	215468
#	230018
#	242788
#	254859
#
# Disc length: 3561 seconds
#
# Revision: 5
# Processed by: cddbd v1.5.2PL0 Copyright (c) Steve Scherf et al.
# Submitted via: CDex 1.70beta2
#
DISCID=0a0de714
DTITLE=Various Artist - The Best Of Boogie Woogie - CD 4
DYEAR=2003
DGENRE=Jazz
TTITLE0=Cow Cow Davenport - Hurry and Bring It On Home
TTITLE1=Clarence Johnson - Gulf Coast Blues
TTITLE2=Jimmy Blythe - Society Blues
TTITLE3=Everett Robbins - Hard and Luck Blues
TTITLE4=Lemuel Fowler - Down and Out Blues
TTITLE5=Hersal Thomas - The Fives
TTITLE6=Jimmy Yancey - Crying In My Sleep
TTITLE7=Meade Lux Lewis - Whistlin' Blues
TTITLE8=Pete Johnson and Albert Ammons - Cuttin' The Boogie
TTITLE9=Jimmy Yancey - Tell' Em About Me
TTITLE10=Albert Ammons and Pete Johnson - Footpedal Boogie
TTITLE11=Big Jay Mc Neely - Willie The Cool Cat
TTITLE12=Clifford Blivens - Junie Flip
TTITLE13=Jimmy Yancey - The Mellow Blues
TTITLE14=Pete Johnson and Albert Ammons - Pine Creek
TTITLE15=Big Jay Mc Neely - Just Crazy
TTITLE16=Will Bradley - Rock A Bye The Boogie
TTITLE17=Ray Mc Kinley - Chicken Gumboogie
TTITLE18=Jimmy Yancey - 35th and Dearborn
TTITLE19=Albert Ammons and Pete Johnson - Movin' The Boogie
EXTD=YEAR: 2003
EXTT0=
EXTT1=
EXTT2=
EXTT3=
EXTT4=
EXTT5=
EXTT6=
EXTT7=
EXTT8=
EXTT9=
EXTT10=
EXTT11=
EXTT12=
EXTT13=
EXTT14=
EXTT15=
EXTT16=
EXTT17=
EXTT18=
EXTT19=
PLAYORDER=
